# AST/ASF file generated using VICON BodyLanguage
# -----------------------------------------------
:version 1.10
:name VICON
:units
  mass 1.0
  length 0.45
  angle deg
:documentation
   .ast/.asf automatically generated from VICON data using
   VICON BodyBuilder and BodyLanguage model FoxedUp or BRILLIANT.MOD
:root
   order TX TY TZ RX RY RZ
   axis XYZ
   position 0 0 0  
   orientation 0 0 0 
:bonedata
  begin
     id 1 
     name lhipjoint
     direction 0.646657 -0.683706 0.338203 
     length 2.4948 
     axis 0 0 0  XYZ
  end
  begin
     id 2 
     name lfemur
     direction 0.34202 -0.939693 0  
     length 6.79491  
     axis 0 0 20  XYZ
    dof rx ry rz
    limits (-160.0 20.0)
           (-70.0 70.0)
           (-60.0 70.0)
  end
  begin
     id 3 
     name ltibia
     direction 0.34202 -0.939693 0   
     length 7.56807   
     axis 0 0 20   XYZ
    dof rx
    limits (-10.0 170.0)
  end
  begin
     id 4 
     name lfoot
     direction 0.0679796 -0.186772 0.980048   
     length 2.53018   
     axis -90 7.62852e-016 20   XYZ
    dof rx rz
    limits (-45.0 90.0)
           (-70.0 20.0)
  end
  begin
     id 5 
     name ltoes
     direction 1.53625e-011 -4.21881e-011 1   
     length 1.26912   
     axis -90 7.62852e-016 20   XYZ
    dof rx
    limits (-90.0 20.0)
  end
  begin
     id 6 
     name rhipjoint
     direction -0.618868 -0.704065 0.348274   
     length 2.42265  
     axis 0 0 0  XYZ 
  end
  begin
     id 7 
     name rfemur
     direction -0.34202 -0.939693 0   
     length 6.73814   
     axis 0 0 -20   XYZ
    dof rx ry rz
    limits (-160.0 20.0)
           (-70.0 70.0)
           (-70.0 60.0)
  end
  begin
     id 8 
     name rtibia
     direction -0.34202 -0.939693 0   
     length 7.66799   
     axis 0 0 -20   XYZ
    dof rx
    limits (-10.0 170.0)
 end
 begin
     id 9 
     name rfoot
     direction -0.0727352 -0.199838 0.977125   
     length 2.57224  
     axis -90 -7.62852e-016 -20   XYZ
    dof rx rz
    limits (-45.0 90.0)
           (-20.0 70.0)
  end
  begin
     id 10 
     name rtoes
     direction -1.53501e-011 -4.21858e-011 1   
     length 1.28858   
     axis -90 -7.62852e-016 -20   XYZ
    dof rx
    limits (-90.0 20.0)
  end
  begin
     id 11 
     name lowerback
     direction -0.0172471 0.995767 -0.0902851   
     length 2.20206   
     axis 0 0 0   XYZ
    dof rx ry rz
    limits (-20.0 45.0)
           (-30.0 30.0)
           (-30.0 30.0)
  end
  begin
     id 12 
     name upperback
     direction -0.000110737 0.999714 0.0239043   
     length 2.19523   
     axis 0 0 0   XYZ
    dof rx ry rz
    limits (-20.0 45.0)
           (-30.0 30.0)
           (-30.0 30.0)
  end
  begin
     id 13 
     name thorax
     direction 0.00704869 0.997783 0.0661741   
     length 2.21977   
     axis 0 0 0   XYZ
    dof rx ry rz
    limits (-20.0 45.0)
           (-30.0 30.0)
           (-30.0 30.0)
  end
  begin
     id 14 
     name lowerneck
     direction -0.00407501 0.995527 0.0943846   
     length 1.83142   
     axis 0 0 0   XYZ
    dof rx ry rz
    limits (-20.0 45.0)
           (-30.0 30.0)
           (-30.0 30.0)
  end
  begin
     id 15 
     name upperneck
     direction 0.0640586 0.986486 -0.150807   
     length 1.84616   
     axis 0 0 0   XYZ
    dof rx ry rz
    limits (-20.0 45.0)
           (-30.0 30.0)
           (-30.0 30.0)
  end
  begin
     id 16
     name head
     direction 0.0188017 0.99791 -0.0618239  
     length 1.85932  
     axis 0 0 0   XYZ
    dof rx ry rz
    limits (-20.0 45.0)
           (-30.0 30.0)
           (-30.0 30.0)
  end
  begin
     id 17 
     name lclavicle
     direction 0.976074 0.206905 0.066852  
     length 3.81043  
     axis 0 0 0   XYZ
    dof ry rz
    limits (-20.0 10.0)
           (0.0 20.0)
  end
  begin
     id 18 
     name lhumerus
     direction 1 -4.48971e-011 1.86916e-027   
     length 5.37587   
     axis 180 -30 -90   XYZ
    dof rx ry rz
    limits (-60.0 90.0)
           (-90.0 90.0)
           (-90.0 90.0)
  end
  begin
     id 19
     name lradius
     direction 1 -4.48968e-011 1.69187e-027   
     length 3.35977   
     axis 180 -30 -90   XYZ
    dof rx
    limits (-10.0 170.0)
  end
  begin
     id 20
     name lwrist
     direction 1 -4.48968e-011 5.8978e-027   
     length 1.67988   
     axis -3.27506e-015 90 90   XYZ
    dof ry
    limits (-180.0 0.0)
 end
  begin
     id 21 
     name lhand
     direction 1 -4.49028e-011 1.18071e-026   
     length 0.561859   
     axis -7.52654e-015 90 90   XYZ
    dof rx rz
    limits (-90.0 90.0)
           (-45.0 45.0)
  end
  begin
     id 22 
     name lfingers
     direction 1 -4.48927e-011 2.35758e-026   
     length 0.452985   
     axis -1.50534e-014 90 90   XYZ
    dof rx
    limits (0.0 90.0)
  end
  begin
     id 23
     name lthumb
     direction 0.707107 -6.34898e-011 0.707107   
     length 0.650399   
     axis -90 45 5.69224e-014   XYZ
    dof rx rz
    limits (-45.0 45.0)
           (-45.0 45.0)
  end
  begin
     id 24 
     name rclavicle
     direction -0.988403 0.151789 0.00439714   
     length 3.6942  
     axis 0 0 0   XYZ 
    dof ry rz
    limits (-10.0 20.0)
           (-20.0 0.0)
  end
  begin
     id 25 
     name rhumerus
     direction -1 -4.48978e-011 1.62495e-027  
     length 5.22819   
     axis 180 30 90   XYZ
    dof rx ry rz
    limits (-90.0 60.0)
           (-90.0 90.0)
           (-90.0 90.0)
  end
  begin
     id 26 
     name rradius
     direction -1 -4.48961e-011 3.47796e-027   
     length 3.40764   
     axis 180 30 90   XYZ
    dof rx
    limits (-10.0 170.0)
  end
  begin
     id 27 
     name rwrist
     direction -1 -4.48949e-011 5.89602e-027   
     length 1.70382   
     axis -3.27506e-015 -90 -90   XYZ
    dof ry
    limits (-180.0 0.0)
  end
  begin
     id 28
     name rhand
     direction -1 -4.48977e-011 1.17973e-026   
     length 0.583255   
     axis -7.52654e-015 -90 -90   XYZ
    dof rx rz
    limits (-90.0 90.0)
           (-45.0 45.0)
  end
  begin
     id 29
     name rfingers
     direction -1 -4.49099e-011 2.36408e-026   
     length 0.470235   
     axis -1.50534e-014 -90 -90   XYZ
    dof rx
    limits (0.0 90.0)
  end
  begin
     id 30
     name rthumb
     direction -0.707107 -6.35011e-011 0.707107   
     length 0.675167   
     axis -90 -45 -5.69224e-014   XYZ
    dof rx rz
    limits (-45.0 45.0)
           (-45.0 45.0)
  end
:hierarchy
  begin
    root lhipjoint rhipjoint lowerback
    lhipjoint lfemur
    lfemur ltibia
    ltibia lfoot
    lfoot ltoes
    rhipjoint rfemur
    rfemur rtibia
    rtibia rfoot
    rfoot rtoes
    lowerback upperback
    upperback thorax
    thorax lowerneck lclavicle rclavicle
    lowerneck upperneck
    upperneck head
    lclavicle lhumerus
    lhumerus lradius
    lradius lwrist
    lwrist lhand lthumb
    lhand lfingers
    rclavicle rhumerus
    rhumerus rradius
    rradius rwrist
    rwrist rhand rthumb
    rhand rfingers
  end

#!OML:ASF G:\JayActor3\Patient Classification 1\Patient 1\Session 2\male.ASF
:FULLY-SPECIFIED
:DEGREES
1283
root -8.71276 16.7442 -5.71317 633.256 93.8721 -84.0068
lowerback 6.0198 -4.92178 -9.40638
upperback -2.11728 -7.31056 0.338248
thorax -4.38705 -3.33915 6.22895
lowerneck -0.7949 -11.488 -11.5632
upperneck -4.89872 -15.0123 13.6747
head 0.626374 -7.45351 5.57211
rclavicle 1.33683e-014 -5.08889e-014
rhumerus -52.0194 -10.6267 -54.3077
rradius 15.4847
rwrist 7.66035
rhand -12.6374 2.96545
rfingers 7.12502
rthumb 13.4427 -26.5808
lclavicle 1.33683e-014 -5.08889e-014
lhumerus -8.99828 -2.41453 75.1727
lradius 50.5863
lwrist 14.9875
lhand -21.1272 16.1795
lfingers 7.12502
lthumb 5.25149 46.0944
rfemur -33.8682 4.82489 18.6684
rtibia 35.3888
rfoot -18.149 -4.62529
rtoes 3.44072
lfemur 20.4533 11.0561 -28.3881
ltibia -6.36111e-015
lfoot -7.5874 -0.453984
ltoes -3.00178
1284
root -8.57764 16.7022 -5.72273 633.22 94.1222 -83.9752
lowerback 6.13001 -5.01209 -9.83216
upperback -1.99292 -7.47016 0.313487
thorax -4.24345 -3.41845 6.44665
lowerneck -0.447449 -11.7674 -11.8268
upperneck -4.81496 -15.4341 14.0409
head 0.699572 -7.67636 5.70507
rclavicle -1.27346e-014 -4.77083e-015
rhumerus -52.1353 -10.1881 -53.7727
rradius 15.7909
rwrist 6.85192
rhand -12.9713 2.97177
rfingers 7.12502
rthumb 13.1209 -26.5954
lclavicle -1.27346e-014 -4.77083e-015
lhumerus -8.26612 -2.80725 74.5445
lradius 51.8567
lwrist 15.0014
lhand -21.3757 15.9655
lfingers 7.12502
lthumb 5.01159 45.8863
rfemur -34.2215 4.937 18.5164
rtibia 33.9754
rfoot -18.3105 -4.33505
rtoes 3.35247
lfemur 21.0587 11.0552 -28.5459
ltibia -3.49861e-014
lfoot -8.13748 -0.819582
ltoes -2.83079
1285
root -8.44062 16.6594 -5.73086 633.152 94.4138 -83.9905
lowerback 6.20695 -5.11535 -10.3171
upperback -1.87719 -7.64856 0.279035
thorax -4.07864 -3.50725 6.6831
lowerneck -0.0925941 -12.049 -12.0694
upperneck -4.71648 -15.8632 14.3912
head 0.776347 -7.90363 5.82878
rclavicle 1.11357e-013 3.16068e-014
rhumerus -52.1623 -10.0146 -53.0021
rradius 15.95
rwrist 6.52645
rhand -13.314 3.06474
rfingers 7.12502
rthumb 12.7905 -26.5234
lclavicle 1.11357e-013 3.16068e-014
lhumerus -7.59527 -3.06481 73.9237
lradius 53.0653
lwrist 15.108
lhand -21.6647 15.8247
lfingers 7.12502
lthumb 4.73253 45.7519
rfemur -34.5948 4.95907 18.3571
rtibia 32.7635
rfoot -18.4329 -3.91471
rtoes 3.28708
lfemur 21.6436 11.0496 -28.7374
ltibia 2.22639e-014
lfoot -8.59731 -1.22783
ltoes -2.60732
1286
root -8.30154 16.6169 -5.73797 633.096 94.7421 -84.0225
lowerback 6.23816 -5.23353 -10.8464
upperback -1.7763 -7.84545 0.236828
thorax -3.89303 -3.60583 6.93045
lowerneck 0.260233 -12.3334 -12.2946
upperneck -4.59166 -16.3004 14.7196
head 0.861251 -8.13511 5.94093
rclavicle 4.92986e-014 1.37161e-014
rhumerus -52.1016 -10.0673 -52.0386
rradius 15.9812
rwrist 6.60506
rhand -13.6559 3.20653
rfingers 7.12502
rthumb 12.4609 -26.402
lclavicle 4.92986e-014 1.37161e-014
lhumerus -6.9994 -3.19136 73.3274
lradius 54.2088
lwrist 15.3095
lhand -21.9852 15.7419
lfingers 7.12502
lthumb 4.4231 45.6757
rfemur -34.9918 4.86473 18.2068
rtibia 31.7604
rfoot -18.5104 -3.33576
rtoes 3.26499
lfemur 22.1925 11.0366 -28.9646
ltibia 3.18055e-015
lfoot -8.95145 -1.66975
ltoes -2.34209
1287
root -8.16006 16.5755 -5.74454 633.007 95.1008 -84.13
lowerback 6.21245 -5.36474 -11.4014
upperback -1.69776 -8.05509 0.188658
thorax -3.69086 -3.71141 7.17877
lowerneck 0.603962 -12.6233 -12.4986
upperneck -4.4358 -16.7487 15.0116
head 0.955227 -8.37179 6.03574
rclavicle -2.85753e-016 -1.45113e-014
rhumerus -51.9699 -10.3306 -50.9001
rradius 15.9007
rwrist 7.02678
rhand -14.0053 3.36863
rfingers 7.12502
rthumb 12.124 -26.2601
lclavicle -2.85753e-016 -1.45113e-014
lhumerus -6.49753 -3.19717 72.7749
lradius 55.2882
lwrist 15.6094
lhand -22.3297 15.7032
lfingers 7.12502
lthumb 4.09037 45.6436
rfemur -35.4097 4.65793 18.0733
rtibia 30.9649
rfoot -18.5307 -2.60823
rtoes 3.28891
lfemur 22.6944 11.0205 -29.2269
ltibia 2.54444e-014
lfoot -9.19104 -2.137
ltoes -1.9999
1288
root -8.01565 16.5361 -5.7512 632.832 95.4763 -84.3744
lowerback 6.11657 -5.50754 -11.9562
upperback -1.64488 -8.27091 0.138814
thorax -3.47197 -3.82133 7.41599
lowerneck 0.948558 -12.9161 -12.6855
upperneck -4.26583 -17.2041 15.2683
head 1.05134 -8.61195 6.11576
rclavicle 4.96962e-015 -1.13307e-014
rhumerus -51.7822 -10.7878 -49.6075
rradius 15.7297
rwrist 7.71675
rhand -14.3803 3.512
rfingers 7.12502
rthumb 11.7624 -26.1377
lclavicle 4.96962e-015 -1.13307e-014
lhumerus -6.10242 -3.0886 72.2842
lradius 56.3004
lwrist 15.9881
lhand -22.6588 15.6766
lfingers 7.12502
lthumb 3.77257 45.6229
rfemur -35.8346 4.37889 17.9553
rtibia 30.3644
rfoot -18.4876 -1.77643
rtoes 3.35838
lfemur 23.1461 11.0075 -29.514
ltibia 3.49861e-014
lfoot -9.31446 -2.62088
ltoes -1.59484
